<?xml version="1.0" standalone="no"?>
<!DOCTYPE svg PUBLIC "-//W3C//DTD SVG 20010904//EN"
 "http://www.w3.org/TR/2001/REC-SVG-20010904/DTD/svg10.dtd">
<svg version="1.0" xmlns="http://www.w3.org/2000/svg"
 width="300.000000pt" height="300.000000pt" viewBox="0 0 300.000000 300.000000"
 preserveAspectRatio="xMidYMid meet">
<metadata>
Created by potrace 1.10, written by Peter Selinger 2001-2011
</metadata>
<g transform="translate(0.000000,300.000000) scale(0.100000,-0.100000)"
fill="#000000" stroke="none">
<path d="M2199 2681 c-22 -21 -39 -48 -39 -60 0 -12 20 -41 46 -67 44 -45 46
-45 70 -29 21 14 30 14 59 4 29 -11 37 -10 53 4 17 15 20 15 50 -4 30 -17 35
-18 48 -4 18 17 50 20 59 5 9 -15 41 -12 58 4 13 13 17 13 33 1 25 -19 58 -19
74 0 11 13 11 23 0 55 -10 31 -10 42 -1 54 16 19 10 56 -11 70 -13 7 -26 6
-51 -6 -32 -15 -36 -15 -51 0 -14 14 -21 14 -51 3 -29 -10 -39 -10 -51 0 -11
9 -23 9 -55 0 -32 -10 -44 -10 -55 0 -12 10 -23 10 -51 0 -25 -10 -38 -10 -46
-2 -20 20 -49 11 -88 -28z m81 7 c0 -7 -12 -25 -27 -40 l-27 -28 27 -28 c15
-15 27 -33 27 -40 0 -24 -27 -11 -59 28 l-32 40 31 40 c31 39 60 52 60 28z
m104 5 c3 -4 -8 -22 -26 -40 l-32 -33 33 -34 c23 -23 29 -36 21 -41 -7 -5 -28
9 -53 34 l-41 41 39 40 c40 41 47 45 59 33z m106 -5 c0 -7 -12 -25 -27 -40
l-27 -28 27 -28 c15 -15 27 -33 27 -40 0 -24 -27 -11 -59 28 l-32 40 31 40
c31 39 60 52 60 28z m100 0 c0 -7 -12 -25 -27 -40 l-27 -28 27 -28 c26 -27 35
-52 19 -52 -4 0 -26 18 -47 40 l-39 40 39 40 c40 41 55 49 55 28z m110 0 c0
-7 -12 -25 -27 -40 l-27 -28 27 -28 c30 -31 35 -52 13 -52 -13 0 -76 66 -76
80 0 3 14 22 31 43 30 36 59 49 59 25z"/>
<path d="M444 2635 c-35 -30 -39 -31 -61 -5 -24 27 -77 27 -97 -1 -14 -20 -12
-28 25 -99 21 -43 39 -87 39 -99 0 -25 33 -61 56 -61 9 0 29 14 44 30 26 28
29 29 34 12 13 -39 68 -47 106 -17 30 24 49 24 85 -1 46 -31 82 -24 100 20 7
17 10 33 6 36 -4 3 -10 12 -13 20 -4 8 -14 33 -23 55 -16 36 -16 38 0 25 25
-20 57 -90 50 -108 -9 -24 33 -62 70 -62 35 0 55 28 55 76 0 30 20 28 35 -3
18 -36 35 -51 79 -72 71 -33 147 -10 194 60 20 28 23 42 18 82 -6 53 -19 75
-61 109 -36 28 -114 33 -161 10 -30 -14 -35 -14 -58 2 -28 18 -48 13 -81 -21
-14 -13 -21 -14 -34 -5 -55 39 -72 44 -97 27 -13 -8 -24 -25 -24 -36 0 -19 -4
-17 -40 15 -22 20 -46 36 -54 36 -15 0 -67 -37 -79 -58 -6 -9 -14 -4 -31 20
-28 42 -45 45 -82 13z m-106 -15 c10 0 27 -19 41 -45 13 -25 27 -45 30 -45 3
0 17 20 29 44 17 31 32 46 50 49 15 3 28 4 30 2 2 -1 -17 -34 -42 -73 -36 -54
-46 -80 -46 -111 0 -37 -2 -41 -25 -41 -23 0 -25 4 -25 41 0 40 -14 69 -79
169 -15 23 -15 24 2 17 10 -4 26 -7 35 -7z m456 0 c7 0 24 -20 37 -45 13 -25
26 -45 29 -45 3 0 16 20 30 44 16 30 32 46 49 49 14 3 27 4 29 2 2 -1 -17 -36
-42 -77 -39 -64 -44 -80 -39 -111 5 -36 5 -37 -26 -37 -30 0 -31 1 -31 45 0
34 -8 58 -35 100 -47 73 -54 90 -31 82 10 -4 23 -7 30 -7z m343 -1 c69 -26 97
-87 70 -152 -18 -43 -60 -67 -118 -67 -33 0 -47 6 -75 34 -28 28 -34 41 -34
78 0 51 21 85 64 104 38 16 57 17 93 3z m-427 -111 l49 -108 -29 0 c-23 0 -31
5 -36 25 -6 23 -11 25 -58 25 -47 0 -54 -3 -64 -25 -8 -17 -20 -25 -38 -25
-14 0 -24 4 -22 8 2 5 23 54 48 111 43 97 46 102 73 99 25 -3 33 -14 77 -110z
m-197 -6 c-24 -56 -43 -79 -43 -52 0 30 56 128 67 117 1 -2 -9 -31 -24 -65z"/>
<path d="M1046 2558 c-24 -34 -20 -73 10 -97 33 -26 55 -26 85 -3 28 23 30 73
4 102 -25 28 -79 27 -99 -2z m71 -38 c2 -8 -1 -22 -7 -30 -8 -13 -11 -13 -26
2 -10 9 -14 24 -10 33 7 20 40 16 43 -5z"/>
<path d="M616 2535 c-9 -21 -14 -40 -12 -42 2 -3 17 -3 33 -1 l30 3 -18 39
-17 40 -16 -39z"/>
<path d="M615 2330 c-12 -4 -27 -15 -34 -24 -18 -21 -34 -20 -56 4 -23 26 -49
25 -86 0 l-28 -21 -30 22 c-38 28 -76 20 -88 -18 -10 -29 17 -136 51 -200 26
-51 68 -54 128 -11 14 10 21 9 41 -10 35 -33 71 -29 103 13 31 42 40 43 48 10
9 -34 50 -53 77 -37 16 10 27 10 54 1 30 -11 36 -10 66 15 28 23 35 26 43 14
18 -24 56 -40 82 -34 13 4 24 11 24 16 0 15 42 12 63 -5 11 -7 36 -17 58 -20
21 -4 39 -10 39 -14 0 -4 -27 -19 -60 -34 -115 -53 -247 -168 -328 -284 -40
-56 -89 -166 -108 -238 -13 -49 -18 -106 -18 -190 0 -131 16 -212 60 -310 18
-38 24 -64 19 -82 -8 -33 17 -61 62 -69 23 -4 37 -14 43 -28 4 -12 30 -44 56
-70 171 -168 438 -259 689 -234 102 10 214 40 264 71 26 15 48 20 95 18 50 -2
65 2 84 19 18 17 20 25 11 41 -9 19 -4 27 42 67 71 62 95 88 130 140 88 131
134 275 138 438 4 179 -59 345 -199 517 -49 61 -257 207 -294 207 -9 0 -16 4
-16 8 0 5 -6 9 -12 10 -7 1 -47 11 -88 22 -41 11 -115 26 -164 33 l-90 12 -2
43 c-1 25 -10 52 -20 63 -15 17 -16 24 -6 39 19 31 14 56 -14 75 -44 29 -96
31 -142 5 -40 -23 -41 -23 -69 -5 -39 27 -110 28 -151 4 -40 -23 -68 -24 -76
-4 -8 21 -49 19 -79 -5 l-25 -20 -37 22 c-32 18 -42 20 -68 10 -21 -8 -35 -8
-49 -1 -11 6 -36 8 -55 4 -19 -3 -40 -2 -46 3 -7 5 -21 6 -32 2z m621 -51 c13
-11 13 -14 -1 -28 -12 -13 -19 -13 -35 -3 -27 16 -61 15 -88 -4 -32 -22 -31
-88 2 -109 14 -9 37 -15 53 -13 25 3 28 7 28 38 0 29 4 36 23 38 20 3 22 0 22
-47 0 -60 -14 -71 -88 -71 -59 0 -95 24 -112 75 -14 41 -1 92 30 120 37 34
127 36 166 4z m-851 -59 c25 -81 24 -81 55 18 15 48 22 57 44 60 24 3 27 -1
48 -72 12 -42 24 -73 27 -70 3 2 14 35 26 72 18 59 24 67 47 70 l27 3 -37
-110 c-35 -105 -38 -111 -64 -111 -25 0 -29 5 -51 78 l-24 77 -23 -78 c-23
-76 -24 -78 -53 -75 -29 3 -32 8 -64 103 -18 54 -33 103 -33 108 0 4 12 7 27
5 23 -3 28 -11 48 -78z m355 -30 l0 -110 -25 0 -25 0 0 110 0 110 25 0 25 0 0
-110z m150 45 c28 -36 54 -65 57 -65 2 0 1 29 -2 65 l-7 65 31 0 31 0 0 -110
c0 -108 0 -110 -23 -110 -17 0 -39 19 -76 65 -29 36 -55 65 -58 65 -3 0 -3
-29 -1 -65 l6 -65 -29 0 -29 0 0 110 c0 110 0 110 24 110 18 0 38 -17 76 -65z
m543 59 c8 -3 13 -13 10 -23 -4 -15 -14 -18 -56 -17 -40 1 -52 -3 -55 -15 -2
-13 10 -20 48 -29 49 -12 80 -38 80 -68 0 -7 -11 -24 -25 -37 -19 -20 -34 -25
-75 -25 -67 0 -94 14 -80 41 9 15 15 17 30 9 29 -16 87 -12 94 5 5 15 -27 35
-55 35 -6 0 -23 7 -39 15 -24 13 -30 22 -30 50 0 24 7 39 22 49 22 16 102 22
131 10z m-263 -94 c0 -11 -7 -23 -16 -27 -20 -8 -36 17 -22 34 16 20 38 15 38
-7z m552 -179 c260 -68 476 -265 556 -506 87 -259 17 -545 -182 -749 l-56 -58
-21 25 c-16 22 -19 35 -13 79 3 29 12 62 19 73 7 12 14 30 17 40 2 11 10 20
17 20 21 0 73 93 66 116 -5 14 6 24 54 49 69 34 99 76 81 110 -6 11 -19 20
-29 20 -28 0 -48 31 -44 69 2 19 7 39 12 45 5 6 2 25 -5 44 -15 35 -29 44 -21
12 4 -17 0 -20 -29 -20 -29 0 -33 -3 -31 -22 1 -15 -4 -23 -16 -26 -15 -3 -18
2 -15 24 2 18 10 28 22 30 27 4 45 24 21 24 -33 0 -9 10 37 15 35 4 47 2 51
-10 4 -8 2 -15 -2 -15 -5 0 -7 -9 -4 -20 7 -28 21 -25 29 7 5 18 2 30 -10 38
-9 7 -16 17 -16 23 0 19 -42 26 -55 8 -7 -9 -17 -16 -24 -16 -15 0 -14 20 2
21 6 0 3 4 -8 9 -30 13 -30 13 -31 -21 -2 -39 -21 -60 -34 -39 -5 8 -7 22 -5
31 3 9 0 21 -7 26 -20 15 -58 22 -58 11 0 -6 -6 -8 -14 -5 -10 4 -12 0 -9 -14
3 -10 0 -19 -6 -19 -6 0 -11 5 -11 10 0 6 -5 10 -11 10 -8 0 -7 -6 2 -17 12
-14 12 -16 -1 -11 -11 4 -16 0 -16 -13 0 -23 9 -24 26 -4 7 8 18 15 26 15 7 0
18 9 24 20 13 24 26 26 34 5 8 -22 -4 -46 -22 -43 -9 2 -17 -3 -18 -9 -1 -7
-2 -17 -3 -23 0 -5 -16 -7 -33 -4 -26 5 -30 3 -18 -6 26 -20 -31 0 -62 21 -14
11 -32 19 -39 19 -8 0 -2 11 13 25 30 27 48 32 49 13 0 -7 5 -2 10 11 7 18 6
28 -5 39 -10 11 -12 22 -4 48 5 19 6 45 3 57 -6 20 -5 21 8 4 8 -9 21 -15 30
-11 8 3 18 0 23 -7 5 -8 3 -10 -7 -4 -11 7 -12 6 -3 -6 6 -8 11 -25 12 -38 1
-29 25 -48 30 -24 2 8 -2 20 -10 25 -9 7 -8 8 7 5 11 -2 19 -8 18 -15 -3 -12
73 -39 83 -29 13 13 -20 39 -43 34 -12 -2 -20 0 -17 4 3 5 -2 9 -10 9 -8 0
-25 14 -37 31 -15 21 -27 29 -40 26 -13 -4 -23 2 -31 16 -6 12 -28 42 -50 66
-21 24 -38 49 -38 55 0 6 -12 17 -27 23 -25 11 -28 19 -31 65 -3 52 -17 82
-33 73 -4 -3 -12 3 -18 12 -9 15 -12 16 -20 4 -5 -7 -14 -10 -21 -6 -7 4 -16
2 -20 -5 -4 -7 -13 -9 -19 -6 -6 4 -9 11 -6 15 6 11 -50 22 -70 15 -8 -4 -15
-10 -15 -16 0 -5 4 -6 10 -3 6 3 7 -1 4 -9 -3 -9 -11 -13 -17 -9 -6 4 -8 -3
-4 -19 5 -17 1 -30 -11 -41 -16 -15 -18 -15 -19 4 -1 10 2 17 7 14 5 -3 11 -1
15 5 3 5 -1 10 -10 10 -10 0 -13 5 -9 12 4 7 3 8 -4 4 -7 -4 -12 -20 -12 -36
0 -16 -5 -32 -11 -35 -24 -15 -29 -55 -12 -88 9 -18 17 -42 18 -55 0 -13 6
-26 11 -30 6 -4 13 -14 16 -22 5 -12 7 -12 13 3 5 12 1 23 -14 36 -22 19 -19
33 5 24 8 -3 14 -11 14 -19 0 -8 7 -14 16 -14 15 0 15 2 -1 26 -9 14 -14 32
-11 40 3 7 0 13 -7 11 -22 -4 -18 42 8 83 15 23 22 39 16 36 -12 -8 -4 21 12
42 13 16 24 15 30 -2 4 -10 1 -13 -7 -10 -17 7 -33 -16 -18 -25 8 -5 7 -15 -3
-34 -8 -15 -10 -25 -4 -21 6 3 17 -2 24 -12 9 -11 14 -14 15 -6 0 6 7 12 15
12 23 0 18 16 -6 17 -12 1 -24 4 -26 7 -10 9 26 54 47 61 35 11 114 -50 115
-88 0 -14 13 -30 38 -46 23 -16 34 -28 28 -34 -14 -14 -55 -1 -89 28 -23 19
-32 22 -38 13 -4 -7 -3 -10 1 -5 9 7 45 -20 45 -35 0 -4 -9 -8 -21 -8 -11 0
-17 -4 -14 -10 4 -6 16 -8 28 -4 31 10 68 6 86 -10 9 -7 24 -16 33 -19 9 -3
22 -16 28 -28 9 -16 9 -20 0 -14 -8 5 -11 1 -8 -11 2 -11 10 -18 16 -16 7 1
12 -5 12 -13 0 -8 -4 -15 -10 -15 -5 0 -10 -15 -10 -32 0 -39 -6 -49 -41 -67
-17 -8 -31 -27 -38 -51 -6 -21 -18 -43 -26 -50 -18 -15 -20 0 -2 20 6 8 0 4
-15 -9 -15 -13 -24 -29 -21 -37 3 -8 0 -14 -7 -14 -6 0 -8 5 -5 10 3 6 1 10
-4 10 -6 0 -11 -7 -11 -15 0 -18 -24 -31 -74 -40 -31 -6 -35 -10 -22 -17 20
-11 12 -28 -15 -28 -11 0 -17 5 -14 10 15 24 -33 7 -57 -21 -26 -29 -26 -30
-5 -24 19 5 20 5 4 -5 -9 -6 -22 -8 -27 -5 -12 7 -90 -66 -90 -83 0 -22 -34
-30 -67 -16 -37 16 -47 29 -36 46 4 7 7 22 8 33 0 20 6 21 54 14 20 -3 26 2
35 30 7 18 20 39 31 47 10 8 16 17 12 21 -9 8 -47 -26 -47 -42 0 -7 -9 -20
-21 -31 -25 -23 -55 -8 -51 26 2 17 -2 20 -18 15 -12 -4 -20 -2 -20 5 0 7 -7
10 -15 6 -26 -9 -16 10 10 22 32 15 38 15 29 1 -4 -7 7 -1 25 12 17 13 34 35
38 49 3 14 20 39 37 57 17 17 40 56 50 86 14 41 30 65 65 93 25 22 50 38 54
36 5 -1 6 1 3 6 -8 13 40 55 56 50 7 -3 21 -2 32 1 17 7 17 8 2 23 -19 19 -21
49 -5 65 12 12 4 33 -12 33 -5 0 -9 -6 -9 -13 0 -7 -9 -18 -20 -25 -11 -7 -20
-18 -20 -25 0 -6 5 -4 11 6 14 24 31 21 28 -5 -2 -13 0 -28 4 -35 9 -14 -34
-5 -48 11 -27 30 -39 4 -24 -49 5 -16 -58 -77 -64 -63 -4 10 -8 9 -17 -2 -8
-12 -10 -10 -5 10 3 16 -2 34 -13 48 -16 20 -28 23 -97 25 -46 2 -86 -2 -95
-8 -8 -6 -40 -19 -70 -30 -30 -10 -61 -27 -68 -37 -7 -10 -17 -18 -23 -18 -15
0 -49 -39 -47 -53 2 -6 -5 -11 -14 -9 -10 2 -18 -2 -18 -8 0 -5 -6 -10 -13
-10 -18 0 -59 -45 -50 -54 4 -4 0 -4 -10 0 -26 9 -63 -20 -70 -56 -4 -17 -10
-29 -15 -26 -4 2 -14 1 -20 -3 -16 -9 -1 -123 17 -129 16 -5 14 -29 -5 -57
-20 -30 -12 -43 31 -51 34 -6 34 -6 28 -50 -5 -40 -3 -47 28 -79 55 -58 128
-108 157 -107 15 0 44 -14 64 -30 21 -16 50 -33 65 -37 38 -11 389 -5 493 8
46 6 119 11 162 11 l78 0 0 -41 c0 -36 -3 -42 -30 -52 -41 -16 -41 -51 0 -66
17 -5 38 -8 48 -5 12 4 10 0 -6 -13 -20 -17 -30 -18 -93 -9 -76 11 -104 3
-104 -29 0 -13 11 -22 35 -28 l35 -9 -45 -20 c-102 -45 -189 -61 -330 -61
-107 0 -152 5 -214 22 -146 39 -279 115 -393 224 -47 45 -52 57 -24 57 10 0
24 7 31 15 10 13 10 19 -4 34 -9 10 -14 25 -10 35 5 12 2 15 -10 10 -11 -4
-26 2 -41 16 l-23 22 -12 -23 c-12 -21 -13 -22 -26 -5 -26 36 -73 185 -84 266
-13 97 -1 217 31 314 88 260 312 454 599 517 111 24 290 20 402 -10z m-384
-353 c18 -18 14 -30 -6 -19 -11 6 -27 4 -47 -5 l-30 -14 28 5 c32 6 56 -3 38
-15 -9 -5 -7 -11 5 -21 14 -11 16 -11 10 0 -5 8 -3 16 5 21 17 11 29 3 29 -19
0 -9 7 -26 15 -37 13 -16 14 -16 9 -1 -8 22 4 22 28 0 23 -21 23 -59 1 -72
-14 -8 -15 -11 -3 -11 17 -1 -34 -50 -51 -50 -15 0 -24 33 -11 38 7 2 12 15
12 30 0 24 -14 23 -15 -1 -1 -7 -6 -11 -12 -10 -6 1 -9 -6 -6 -17 4 -14 0 -20
-11 -20 -9 0 -16 -5 -16 -11 0 -5 5 -7 10 -4 6 4 17 1 26 -5 12 -11 12 -14 -3
-25 -10 -7 -21 -11 -25 -9 -5 3 -8 0 -8 -5 0 -15 13 -14 29 2 10 10 11 8 5 -6
-4 -13 -13 -17 -27 -13 -11 2 -26 -2 -34 -10 -8 -8 -22 -14 -31 -14 -11 0 -5
8 16 20 17 11 32 22 32 25 0 9 -35 -8 -68 -32 -18 -14 -47 -26 -65 -26 -22 -2
-33 -8 -35 -21 -3 -12 1 -17 10 -13 7 2 12 10 10 17 -3 11 0 11 12 1 12 -10
20 -9 43 6 l28 18 -22 -29 c-27 -34 -89 -69 -109 -62 -24 9 -15 26 14 27 15 1
20 3 11 6 -10 2 -19 13 -22 24 -5 17 -9 19 -26 10 -11 -6 -31 -11 -45 -11 -16
0 -26 -6 -26 -15 0 -20 -19 -19 -27 1 -3 9 5 26 19 42 28 30 47 82 23 62 -10
-9 -14 -7 -18 7 -2 10 -2 4 0 -13 2 -23 -3 -40 -22 -62 -22 -26 -23 -31 -10
-42 17 -14 19 -29 6 -49 -8 -12 -14 -13 -35 -3 -26 12 -26 12 -11 48 8 20 23
43 33 51 16 14 16 14 0 9 -10 -3 -18 -1 -18 4 0 5 9 12 20 15 20 6 25 16 13
28 -3 4 -12 -1 -19 -11 -20 -28 -28 -5 -9 25 26 38 56 62 81 63 11 0 31 12 45
26 24 26 24 26 2 15 -13 -6 -23 -16 -23 -21 0 -6 -10 -10 -22 -10 -19 0 -20 2
-8 10 8 5 11 10 5 10 -5 0 -2 5 7 11 10 5 20 9 23 9 9 -1 65 30 65 36 0 3 -4
2 -10 -1 -16 -10 -11 1 7 16 14 12 15 12 9 0 -7 -10 -3 -12 15 -6 34 11 76 34
62 35 -6 0 -23 -4 -37 -10 -42 -16 -30 -1 17 21 23 11 60 31 82 44 47 28 48
28 63 13z m91 1 c-7 -4 -17 -5 -21 -3 -4 3 -8 0 -8 -6 0 -6 10 -8 27 -4 22 6
25 4 20 -9 -4 -10 -2 -16 5 -14 20 4 21 -36 2 -51 -17 -13 -17 -14 -1 -9 9 4
17 2 17 -3 0 -15 -26 -12 -40 5 -7 8 -9 15 -5 15 4 0 2 7 -5 15 -9 10 -9 15
-1 15 6 0 11 5 11 10 0 6 -11 10 -24 10 -26 0 -41 14 -31 29 3 5 19 9 36 9 19
-1 25 -4 18 -9z m622 -256 c8 -55 7 -64 -7 -59 -9 3 -23 6 -31 6 -13 0 -13 3
-3 15 7 8 9 15 5 15 -4 0 -2 7 5 15 13 16 29 20 31 8z m-196 -23 c18 -19 17
-20 -6 -20 -31 0 -53 15 -45 29 11 17 31 13 51 -9z m-925 -16 c0 -8 -4 -13 -9
-10 -5 3 -11 0 -14 -8 -3 -8 1 -17 9 -20 8 -3 14 -10 14 -16 0 -6 -4 -8 -10
-5 -5 3 -10 -3 -10 -14 0 -12 -6 -21 -14 -21 -18 0 -16 54 2 88 15 25 32 29
32 6z m1260 -12 c0 -13 -31 -52 -41 -52 -7 0 -7 35 0 58 2 6 41 1 41 -6z
m-850 -19 c0 -12 -52 -33 -63 -26 -13 8 21 33 45 33 10 0 18 -3 18 -7z m629
-3 c112 -19 181 -70 181 -134 -1 -60 -47 -168 -89 -208 -97 -92 -297 -71 -357
37 -62 110 -77 178 -50 219 28 43 144 91 226 95 14 0 54 -4 89 -9z m-875 -39
c8 -12 -19 -33 -29 -23 -5 4 -6 -1 -2 -10 7 -20 -20 -33 -39 -17 -18 15 -7 36
24 48 35 12 40 13 46 2z m166 4 c0 -14 -28 -62 -44 -76 -14 -11 -16 -18 -8
-23 8 -4 12 0 12 11 1 16 2 16 10 2 5 -9 6 -29 1 -45 -4 -16 -6 -35 -4 -41 3
-7 0 -13 -7 -13 -6 0 -8 -4 -5 -10 11 -18 -15 -50 -40 -50 -14 0 -25 -3 -25
-7 0 -14 44 -53 61 -53 12 0 16 -6 12 -20 -3 -11 -9 -18 -13 -15 -4 3 -13 -2
-20 -10 -7 -8 -22 -15 -34 -15 -21 1 -21 1 3 20 18 16 20 20 7 20 -9 0 -26 8
-37 18 -16 15 -28 17 -65 12 -36 -6 -47 -4 -52 8 -3 9 0 18 6 20 6 2 22 12 34
22 20 17 20 19 6 20 -20 0 -24 15 -8 25 18 11 10 26 -12 23 -14 -2 -31 -17
-43 -40 -18 -35 -45 -51 -45 -28 0 6 6 10 13 10 7 0 17 15 22 33 6 17 14 31
19 29 5 -2 16 8 26 23 22 33 83 73 73 48 -4 -11 -3 -14 5 -9 7 4 12 14 12 22
0 8 4 12 10 9 5 -3 20 3 32 14 12 12 31 21 42 22 20 0 20 1 2 8 -18 7 -18 8 5
24 22 16 49 23 49 12z m28 -54 c9 -5 11 -17 6 -35 -3 -15 -1 -32 5 -40 16 -19
0 -28 -20 -12 -11 8 -17 26 -16 54 1 44 3 47 25 33z m-241 -34 c-2 -6 -7 -12
-13 -14 -15 -4 -37 14 -30 25 8 13 48 3 43 -11z m-92 3 c3 -5 20 -14 38 -19
25 -7 28 -10 15 -16 -11 -4 -28 1 -47 14 -24 18 -30 19 -35 6 -3 -8 -11 -15
-18 -14 -9 0 -10 2 -1 5 7 3 9 12 6 20 -6 16 32 20 42 4z m639 -26 c25 -31 27
-39 17 -61 -7 -14 -9 -28 -6 -31 3 -3 5 -1 5 5 0 22 36 0 63 -39 22 -31 27
-47 22 -69 -8 -35 -30 -37 -55 -6 -10 12 -22 18 -26 14 -5 -5 2 -16 15 -26 21
-16 22 -19 7 -34 -9 -8 -16 -22 -16 -29 0 -22 -22 -38 -49 -38 -17 0 -22 3
-13 8 9 6 6 12 -12 22 -21 11 -23 16 -15 32 6 11 16 17 23 15 7 -3 11 5 11 22
0 19 6 27 23 29 20 3 27 13 23 35 -2 13 34 7 58 -10 18 -12 23 -13 19 -2 -2 7
-19 18 -37 23 -20 6 -30 14 -27 22 3 8 0 11 -10 7 -7 -3 -14 -9 -14 -15 0 -5
-5 -6 -11 -2 -8 5 -8 8 0 14 8 4 9 14 2 31 -9 24 -10 24 -16 -8 -5 -19 -12
-30 -19 -27 -6 3 -1 -3 12 -14 26 -24 27 -28 7 -35 -9 -4 -19 4 -27 21 -7 14
-29 37 -48 50 -19 13 -36 26 -37 30 -5 15 15 32 40 34 15 1 27 6 27 10 0 4 7
5 15 2 12 -5 14 0 9 25 -8 41 4 39 40 -5z m611 -5 c-4 -5 -1 -9 4 -9 6 0 11 5
11 12 0 6 3 8 7 4 4 -4 -3 -16 -17 -27 -18 -14 -20 -17 -6 -12 13 4 17 3 12
-5 -8 -14 -16 -15 -34 -3 -10 6 -11 13 -1 34 7 15 16 24 21 21 4 -3 6 -10 3
-15z m-941 -50 c-10 -4 -14 -8 -8 -8 6 -1 11 -13 12 -28 0 -16 2 -39 4 -52 2
-21 -3 -27 -30 -34 -18 -6 -35 -7 -38 -4 -4 3 4 26 16 51 12 25 23 52 24 58 3
23 17 38 29 31 7 -4 4 -9 -9 -14z m232 -49 c19 0 64 -69 46 -71 -26 -3 -46 -9
-55 -18 -7 -7 -3 -8 12 -4 12 3 21 1 21 -6 0 -6 -7 -11 -16 -11 -8 0 -13 -4
-9 -10 3 -5 12 -7 20 -3 12 4 13 0 6 -18 -12 -33 -33 -30 -52 8 -9 18 -19 30
-23 26 -3 -3 -6 -1 -6 5 0 7 7 12 15 12 16 0 16 20 0 32 -14 10 -25 -1 -25
-25 0 -30 56 -97 81 -97 11 0 18 -4 15 -8 -9 -14 -76 -1 -76 15 0 8 -4 12 -9
9 -5 -3 -16 5 -25 18 -8 14 -24 27 -35 31 -12 4 -17 12 -14 24 3 13 -2 20 -18
24 -13 4 -25 4 -28 2 -2 -3 1 -5 7 -5 7 0 12 -11 12 -24 0 -14 5 -28 10 -31 6
-4 8 -10 5 -15 -3 -5 7 -16 22 -25 27 -15 27 -16 3 -10 -15 3 -9 -3 15 -14 36
-18 38 -20 15 -21 -14 -1 -33 -2 -42 -1 -10 1 -26 -3 -37 -9 -16 -8 -30 -7
-58 5 -58 24 -67 35 -43 52 16 11 18 17 8 33 -10 15 -7 22 19 44 19 16 33 40
37 61 l7 35 36 -15 c21 -9 48 -12 67 -9 17 4 39 6 49 6 21 -1 23 14 2 22 -8 3
-15 11 -15 17 0 7 10 3 23 -9 13 -12 28 -22 33 -22z m-363 -108 c16 -18 16
-19 -8 -32 -20 -10 -28 -11 -37 -2 -9 9 -7 12 10 12 12 0 22 5 22 10 0 6 -7
10 -15 10 -8 0 -15 5 -15 10 0 16 26 11 43 -8z m610 -32 c12 0 47 -30 47 -41
0 -4 -15 -9 -32 -11 -18 -3 31 -4 110 -3 137 1 180 -7 108 -21 -19 -3 -75 -4
-125 -3 -49 2 -87 1 -84 -3 2 -5 -15 -7 -39 -7 l-43 2 35 6 35 7 -43 6 c-24 3
-46 9 -49 12 -11 11 22 65 42 68 11 2 22 0 23 -4 2 -5 9 -8 15 -8z m-923 -40
c13 -8 13 -13 2 -31 -13 -20 -12 -21 16 -14 32 7 53 -9 25 -19 -27 -11 -104 5
-110 22 -4 9 3 23 16 34 26 21 30 21 51 8z m1140 0 c-14 -4 -36 -8 -50 -8 -23
-1 -23 0 -5 8 11 5 34 8 50 8 29 0 29 0 5 -8z m-736 -27 c4 -5 22 -13 39 -20
19 -7 25 -12 14 -12 -18 -1 -77 25 -77 34 0 8 16 6 24 -2z m286 -33 c-14 -9
-168 -4 -179 6 -2 2 40 4 95 4 69 0 94 -3 84 -10z m438 -209 c8 -4 13 -11 13
-15 -1 -3 2 -6 7 -6 4 0 7 6 7 13 0 19 44 21 52 2 7 -21 -9 -32 -59 -40 -65
-11 -105 18 -60 44 21 13 24 13 40 2z"/>
<path d="M1710 1668 c-14 -6 -34 -13 -44 -15 -43 -8 -28 -15 19 -9 65 9 85 15
85 27 0 12 -29 11 -60 -3z"/>
<path d="M1772 1653 c-18 -3 -21 -8 -13 -17 8 -10 6 -20 -10 -40 -25 -32 -14
-34 18 -4 28 26 31 6 3 -22 -11 -11 -16 -20 -12 -20 18 0 40 36 44 73 2 20 2
36 -2 36 -3 -1 -15 -4 -28 -6z"/>
<path d="M1851 1620 c-1 -37 -44 -140 -58 -140 -5 0 -17 -13 -26 -30 -23 -38
-4 -40 20 -2 9 15 30 38 45 51 32 27 42 70 29 121 l-9 35 -1 -35z"/>
<path d="M1583 1612 c-13 -2 -23 -9 -23 -16 0 -7 -11 -23 -25 -36 -14 -13 -29
-39 -35 -59 -10 -37 -5 -57 7 -25 7 21 69 102 92 121 18 16 13 20 -16 15z"/>
<path d="M1703 1596 c-13 -6 -23 -16 -23 -22 0 -6 -9 -19 -20 -29 -18 -16 -25
-14 -21 8 0 4 -3 7 -8 7 -4 0 -11 -18 -14 -40 -6 -46 -22 -70 -46 -70 -9 0
-37 -18 -61 -40 -31 -28 -39 -40 -27 -40 10 0 15 5 12 10 -3 6 -1 10 6 10 7 0
26 12 42 28 20 18 31 23 34 15 4 -12 83 62 83 77 0 4 16 24 35 46 28 32 45 59
33 53 -2 -1 -13 -6 -25 -13z"/>
<path d="M1690 1461 c0 -6 -11 -16 -25 -21 -14 -5 -25 -15 -25 -21 0 -8 4 -8
15 1 8 6 18 9 23 6 10 -6 25 34 17 43 -3 2 -5 -1 -5 -8z"/>
<path d="M1712 1410 c-10 -26 -54 -56 -69 -47 -9 6 -34 -18 -27 -26 8 -7 -28
-26 -82 -42 -39 -11 -43 -11 -33 1 6 8 29 19 50 25 21 7 36 15 34 19 -3 4 6
15 20 24 14 9 25 22 25 29 -1 8 -5 6 -13 -4 -12 -16 -48 -38 -99 -61 -16 -7
-28 -16 -28 -21 0 -4 -5 -5 -12 -1 -7 4 -8 3 -4 -5 11 -18 -2 -47 -27 -58 -13
-6 -29 -29 -39 -57 -20 -54 -14 -62 8 -11 8 19 21 35 29 35 7 0 21 9 29 21 8
12 19 18 25 15 5 -4 14 0 18 9 5 8 24 23 43 33 19 11 62 35 95 55 33 20 66 40
74 45 11 6 12 13 3 28 -10 18 -11 18 -20 -6z"/>
<path d="M800 1360 c0 -5 5 -10 10 -10 6 0 10 -5 10 -11 0 -6 -9 -9 -20 -6
-14 4 -29 -3 -46 -21 -24 -27 -24 -27 -3 -30 12 -2 33 5 48 15 14 11 34 22 44
26 14 5 16 11 7 27 -11 20 -50 28 -50 10z"/>
<path d="M823 1303 c4 -3 0 -11 -9 -17 -19 -14 -8 -48 15 -44 24 5 28 68 5 68
-10 0 -14 -3 -11 -7z"/>
<path d="M1383 1300 c-25 -10 -31 -30 -10 -30 7 0 4 -7 -7 -15 -11 -8 -17 -18
-13 -21 9 -10 38 16 35 32 -2 7 6 20 17 28 22 17 12 20 -22 6z"/>
<path d="M845 1219 c6 -29 13 -35 26 -22 15 15 4 43 -15 43 -10 0 -13 -7 -11
-21z"/>
<path d="M1298 1595 c-4 -5 -5 -12 -1 -18 10 -16 11 -77 1 -77 -5 0 -6 -5 -2
-11 9 -15 24 9 24 41 0 18 3 21 9 11 5 -7 14 -10 20 -6 15 8 -4 35 -24 35 -8
0 -15 7 -17 16 -2 9 -6 13 -10 9z"/>
<path d="M1245 1564 c-10 -8 -29 -14 -42 -14 -15 0 -23 -6 -23 -18 0 -10 -5
-23 -12 -30 -26 -26 1 -10 30 18 18 17 37 30 43 30 16 0 -23 -63 -47 -75 -35
-17 -105 -77 -99 -84 4 -3 11 2 16 12 6 9 14 15 18 12 5 -2 16 4 26 15 20 22
37 18 28 -7 -4 -10 -2 -14 5 -10 6 4 16 22 22 41 7 21 19 36 33 40 18 5 19 8
7 15 -12 9 -12 11 2 16 17 7 31 42 19 49 -3 2 -15 -2 -26 -10z"/>
<path d="M1110 1493 c-23 -27 -46 -56 -52 -66 -8 -16 -5 -15 21 4 17 12 31 28
31 34 0 6 11 21 25 33 22 19 33 42 21 42 -2 0 -23 -21 -46 -47z"/>
<path d="M1243 1472 c-18 -3 -20 -7 -13 -32 4 -16 6 -30 4 -32 -2 -2 10 -3 27
-2 42 3 50 14 11 14 -36 0 -39 6 -15 32 19 21 16 25 -14 20z"/>
<path d="M1766 1264 c-43 -15 -72 -38 -88 -67 -12 -23 20 -61 72 -85 46 -20
211 -23 260 -3 46 19 100 59 100 75 0 21 -53 64 -99 81 -55 19 -192 19 -245
-1z m228 -20 c30 -12 6 -22 -31 -14 -21 5 -39 7 -41 5 -5 -5 97 -35 120 -35
17 0 16 -4 -8 -35 -14 -19 -31 -35 -36 -35 -6 0 -5 6 2 15 8 9 -10 5 -52 -12
-67 -28 -131 -34 -163 -15 -17 9 -12 11 30 11 48 -1 205 49 160 50 -23 1 -162
-25 -188 -34 -31 -13 -64 2 -64 29 0 20 8 29 41 42 63 27 193 42 230 28z"/>
<path d="M2063 1108 c-13 -6 -24 -23 -27 -43 -7 -33 -64 -95 -88 -95 -6 0 -9
-3 -6 -6 3 -3 30 7 58 22 42 22 57 37 72 71 23 52 21 64 -9 51z"/>
<path d="M1791 1051 c6 -16 22 -39 36 -52 l25 -24 -26 39 c-14 21 -26 45 -26
52 0 8 -4 14 -9 14 -6 0 -6 -11 0 -29z"/>
<path d="M1152 1188 c-35 -22 -39 -28 -18 -28 17 0 63 36 56 44 -3 2 -20 -4
-38 -16z"/>
<path d="M1122 1137 c-12 -15 -6 -27 23 -43 17 -10 21 -9 21 5 0 9 -8 25 -17
34 -13 14 -18 15 -27 4z"/>
<path d="M1080 1084 c0 -4 8 -13 18 -20 16 -13 16 -13 -2 -14 -24 0 -11 -15
21 -24 18 -6 20 -3 16 13 -5 19 -53 59 -53 45z"/>
<path d="M2274 2096 c-35 -26 9 -154 45 -132 6 4 11 26 11 49 0 80 -20 109
-56 83z m30 -37 c3 -17 6 -46 5 -63 -1 -31 -1 -31 -14 9 -16 47 -19 85 -6 85
5 0 11 -14 15 -31z"/>
<path d="M2467 2044 c-26 -35 -32 -53 -29 -77 5 -30 6 -29 39 36 18 37 38 67
43 67 6 0 10 -2 10 -5 0 -12 -53 -111 -64 -117 -6 -4 -8 -10 -4 -13 28 -28
103 110 77 141 -20 24 -38 16 -72 -32z"/>
<path d="M2357 2033 c-11 -10 -8 -55 2 -48 5 3 13 1 16 -5 9 -15 35 7 35 30 0
23 -37 39 -53 23z"/>
<path d="M2599 1877 c-57 -30 -65 -62 -17 -75 43 -11 93 4 109 34 10 20 10 27
-6 44 -23 25 -32 25 -86 -3z m79 -19 c-5 -14 -63 -36 -97 -37 -33 -1 -17 14
34 33 50 18 68 19 63 4z"/>
<path d="M313 793 c-42 -44 -43 -47 -28 -70 13 -20 14 -29 4 -58 -10 -27 -10
-37 1 -50 11 -13 11 -23 0 -55 -11 -32 -11 -42 0 -55 10 -12 10 -21 0 -45 -10
-24 -10 -37 -1 -57 9 -19 9 -33 -1 -59 -10 -29 -10 -37 5 -51 15 -15 21 -15
52 -4 28 10 42 10 69 0 58 -21 86 21 50 76 -9 14 -12 25 -6 25 18 0 24 40 11
71 -9 23 -9 33 0 42 15 15 13 48 -4 71 -13 17 -13 22 2 38 15 16 15 23 4 54
-11 31 -11 38 3 52 14 14 13 19 -5 51 -20 37 -67 71 -97 71 -8 0 -35 -21 -59
-47z m108 -15 c38 -31 51 -58 27 -58 -7 0 -25 12 -40 27 l-28 27 -28 -27 c-31
-30 -52 -35 -52 -13 0 11 65 74 78 76 2 0 21 -14 43 -32z m3 -107 c49 -50 39
-78 -10 -30 l-34 33 -34 -33 c-49 -48 -59 -20 -10 30 21 21 41 39 44 39 3 0
23 -18 44 -39z m-3 -103 c38 -31 51 -58 27 -58 -7 0 -25 12 -40 27 l-28 27
-28 -27 c-31 -30 -52 -35 -52 -13 0 11 65 74 78 76 2 0 21 -14 43 -32z m3
-107 c49 -50 39 -78 -10 -30 l-34 33 -28 -27 c-27 -26 -52 -35 -52 -20 0 9 72
83 80 83 3 0 23 -18 44 -39z m-1 -102 c36 -30 49 -59 25 -59 -7 0 -25 12 -40
27 l-28 27 -28 -27 c-31 -30 -52 -35 -52 -13 0 13 66 76 80 76 3 0 22 -14 43
-31z"/>
</g>
</svg>
